<svg width="203" height="202" viewBox="0 0 203 202" fill="none" xmlns="http://www.w3.org/2000/svg">
<path fill-rule="evenodd" clip-rule="evenodd" d="M44.2674 16.3735C9.66539 40.0025 -7.9776 83.7015 3.4844 126.465C17.9874 180.604 73.6354 212.733 127.773 198.223C172.012 186.371 201.546 147.057 202.964 103.536C196.841 139.251 170.623 169.934 133.324 179.926C82.2264 193.62 29.7124 163.3 16.0184 112.202C6.4064 76.3155 18.5044 39.7215 44.2674 16.3735Z" fill="#71726F"/>
<path fill-rule="evenodd" clip-rule="evenodd" d="M157.688 156.389C186.883 136.45 201.771 99.5815 192.1 63.4935C179.859 17.8084 132.906 -9.29855 87.2214 2.93745C49.8924 12.9414 24.9674 46.1204 23.7734 82.8404C28.9394 52.7034 51.0644 26.8134 82.5384 18.3824C125.652 6.82944 169.97 32.4144 181.524 75.5284C189.638 105.814 179.428 136.692 157.688 156.389Z" fill="#6EC9F1"/>
<path fill-rule="evenodd" clip-rule="evenodd" d="M144.508 121.491C140.28 130.963 139.764 131.644 134.355 135.377C135.02 130.133 136.729 125.388 135.203 120.478C134.522 117.942 134.01 115.403 133.162 113.033C130.804 107.274 129.446 107.274 125.549 112.352C118.282 122.171 118.779 137.071 126.742 147.72C127.753 148.914 129.099 149.928 129.279 152.299C120.984 152.118 113.538 149.928 107.963 143.656C100.512 134.697 101.526 124.212 103.384 113.034C106.268 114.724 106.603 117.444 108.295 119.122C110.499 121.841 112.011 121.66 113.537 118.622C115.229 114.892 115.064 111.176 113.537 107.792C110.997 101.869 112.011 96.2784 114.051 90.7025C117.1 82.7407 121.83 75.8081 127.751 69.716C128.598 68.8705 129.444 67.3442 130.803 67.8579C132.15 68.1946 131.65 69.8848 131.65 70.8974C131.817 75.6393 134.685 79.3563 137.058 83.2528C141.62 90.7017 145.519 98.4839 141.969 107.955C146.032 105.085 147.046 103.213 149.749 94.2548C156.518 102.38 159.735 110.676 156.185 121.161C160.25 119.122 161.428 115.573 162.954 112.352C173.106 129.274 159.057 151.453 136.545 152.796C146.201 144.003 147.892 133.85 144.508 121.491Z" fill="url(#paint0_linear_501_159)"/>
<path fill-rule="evenodd" clip-rule="evenodd" d="M120.192 74.4984V60.7812C120.192 59.1035 118.849 57.9097 117.323 57.9097H106.157C104.631 57.9097 103.272 59.1035 103.272 60.7969V70.089C98.8768 66.0394 94.6461 62.138 90.2499 58.0785C88.5582 56.7317 87.7102 56.5521 86.0192 58.0785C71.8032 70.7657 57.4192 83.4579 43.0369 95.9812C42.0244 96.9947 41.0126 97.8401 40 98.8685H47.2668V102.073C47.2668 102.418 47.4331 103.098 47.4331 103.599C47.4331 116.635 47.4331 129.66 47.2668 142.864C47.2668 144.553 47.7814 145.054 49.6395 145.054C57.253 145.054 64.8689 145.054 72.4824 145.054C74.1742 145.054 74.5059 144.553 74.5059 142.864C74.5059 136.259 74.5059 129.66 74.5059 123.056C74.6722 119.338 76.7123 117.3 80.4293 117.3C83.8137 117.136 87.1981 117.3 90.762 117.3C96.8368 117.3 98.7106 119.175 98.7106 125.097C98.876 121.545 99.5552 117.812 100.236 113.915L101.247 107.993L106.324 111.212C109.029 112.907 110.04 114.777 111.234 116.635V116.804C111.399 116.123 111.567 115.442 111.567 114.777C111.567 113.584 111.234 112.226 110.554 110.88C109.028 107.315 108.514 103.943 108.697 100.379C108.862 97.1742 109.706 93.9585 111.067 90.9067C112.578 86.6776 114.618 82.6124 117.156 78.8954C118.169 77.3699 119.182 76.0082 120.192 74.4984Z" fill="#71726F"/>
<path d="M159.557 52.743C157.662 50.3229 155.529 48.1437 153.198 46.2456C152.992 46.0857 152.746 46 152.494 46C152.242 46 151.996 46.0857 151.79 46.2456C149.463 48.1445 147.334 50.3237 145.443 52.743C141.226 58.0987 139 63.7444 139 69.0713C139 73.0306 140.422 76.8278 142.954 79.6275C145.486 82.4272 148.92 84 152.5 84C156.08 84 159.514 82.4272 162.046 79.6275C164.578 76.8278 166 73.0306 166 69.0713C166 63.7444 163.774 58.0987 159.557 52.743ZM161.068 70.6558C160.75 72.6214 159.894 74.4321 158.617 75.844C157.34 77.2559 155.703 78.2012 153.925 78.5527C153.86 78.5643 153.794 78.5706 153.727 78.5714C153.419 78.5713 153.123 78.4433 152.896 78.2127C152.67 77.9821 152.53 77.6658 152.505 77.3266C152.479 76.9873 152.57 76.6498 152.759 76.3811C152.948 76.1124 153.221 75.932 153.525 75.8757C156.067 75.4024 158.224 73.0172 158.655 70.2011C158.709 69.8461 158.889 69.5296 159.155 69.3212C159.42 69.1129 159.75 69.0297 160.071 69.0899C160.392 69.1502 160.678 69.3491 160.866 69.6427C161.055 69.9364 161.13 70.3008 161.076 70.6558H161.068Z" fill="#6EC9F1"/>
<defs>
<linearGradient id="paint0_linear_501_159" x1="131.5" y1="44.5" x2="144.5" y2="155.5" gradientUnits="userSpaceOnUse">
<stop stop-color="#E5F33C"/>
<stop offset="0.661426" stop-color="#F33C3C"/>
</linearGradient>
</defs>
</svg>
